<?xml version="1.0" encoding="UTF-8"?>
<!-- DrawProject -->
<svg width="1000" height="1000">
	<drawProject:point
		px="46.32"
		py="184.534"
		id="1"
	/>
	<drawProject:point
		px="37.925"
		py="262.388"
		id="2"
	/>
	<path
		d="M46.32,184.534 A39.2555,39.2555 0 0,0 37.925,262.388"
		id="3"
		childIds="1 2"
		stroke="red"
		stroke-width="5"
		fill="none"
	/>
	<drawProject:arc
		x1="46.32"
		y1="184.534"
		x2="37.925"
		y2="262.388"
		angle="2.99678"
		id="3"
		childIds="1 2"
	/>
	<drawProject:point
		px="37.925"
		py="262.388"
		id="5"
	/>
	<drawProject:point
		px="199.987"
		py="238.382"
		id="6"
	/>
	<path
		d="M37.925,262.388 A93.5967,93.5967 0 0,0 199.987,238.382"
		id="7"
		childIds="5 6"
		stroke="red"
		stroke-width="5"
		fill="none"
	/>
	<drawProject:arc
		x1="37.925"
		y1="262.388"
		x2="199.987"
		y2="238.382"
		angle="2.13167"
		id="7"
		childIds="5 6"
	/>
	<drawProject:point
		px="199.987"
		py="238.382"
		id="9"
	/>
	<drawProject:point
		px="74.404"
		py="160.739"
		id="10"
	/>
	<path
		d="M199.987,238.382 A76.9411,76.9411 0 1,0 74.404,160.739"
		id="11"
		childIds="9 10"
		stroke="red"
		stroke-width="5"
		fill="none"
	/>
	<drawProject:arc
		x1="199.987"
		y1="238.382"
		x2="74.404"
		y2="160.739"
		angle="3.7129"
		id="11"
		childIds="9 10"
	/>
	<drawProject:point
		px="74.401"
		py="160.736"
		id="16"
	/>
	<drawProject:point
		px="47.211"
		py="184.58"
		id="17"
	/>
	<path
		d="M74.401,160.736 A18.2666,18.2666 0 0,0 47.211,184.58"
		id="18"
		childIds="16 17"
		stroke="red"
		stroke-width="5"
		fill="none"
	/>
	<drawProject:arc
		x1="74.401"
		y1="160.736"
		x2="47.211"
		y2="184.58"
		angle="2.85699"
		id="18"
		childIds="16 17"
	/>
	<drawProject:point
		px="107.472"
		py="145.056"
		id="24"
	/>
	<circle
		cx="107.472"
		cy="145.056"
		r="16.2788"
		id="25"
		childIds="24"
		stroke="red"
		stroke-width="5"
		fill="none"
	/>
	<drawProject:point
		px="163.38"
		py="173.239"
		id="49"
	/>
	<circle
		cx="163.38"
		cy="173.239"
		r="19.2094"
		id="50"
		childIds="49"
		stroke="red"
		stroke-width="5"
		fill="none"
	/>
	<drawProject:point
		px="57.064"
		py="250.76"
		id="52"
	/>
	<drawProject:point
		px="182.2"
		py="236.923"
		id="53"
	/>
	<path
		d="M57.064,250.76 A70.6077,70.6077 0 0,0 182.2,236.923"
		id="54"
		childIds="52 53"
		stroke="red"
		stroke-width="5"
		fill="none"
	/>
	<drawProject:arc
		x1="57.064"
		y1="250.76"
		x2="182.2"
		y2="236.923"
		angle="2.20145"
		id="54"
		childIds="52 53"
	/>
	<drawProject:point
		px="108"
		py="168"
		id="56"
	/>
	<drawProject:point
		px="137.796"
		py="185.79"
		id="57"
	/>
	<path
		d="M108,168 A22.2035,22.2035 0 0,0 137.796,185.79"
		id="58"
		childIds="56 57"
		stroke="red"
		stroke-width="5"
		fill="none"
	/>
	<drawProject:arc
		x1="108"
		y1="168"
		x2="137.796"
		y2="185.79"
		angle="1.79404"
		id="58"
		childIds="56 57"
	/>
	<drawProject:point
		px="107"
		py="212"
		id="108"
	/>
	<drawProject:point
		px="138.16"
		py="222.133"
		id="109"
	/>
	<path
		d="M107,212 A18.3849,18.3849 0 1,0 138.16,222.133"
		id="110"
		childIds="108 109"
		stroke="red"
		stroke-width="5"
		fill="none"
	/>
	<drawProject:arc
		x1="107"
		y1="212"
		x2="138.16"
		y2="222.133"
		angle="4.08359"
		id="110"
		childIds="108 109"
	/>
	<drawProject:point
		px="163.62"
		py="172.761"
		id="112"
	/>
	<circle
		cx="163.62"
		cy="172.761"
		r="12.6491"
		id="113"
		childIds="112"
		stroke="red"
		stroke-width="5"
		fill="none"
	/>
	<drawProject:point
		px="107.528"
		py="144.944"
		id="115"
	/>
	<circle
		cx="107.528"
		cy="144.944"
		r="9"
		id="116"
		childIds="115"
		stroke="red"
		stroke-width="5"
		fill="none"
	/>
	<drawProject:point
		px="183"
		py="235"
		id="375"
	/>
	<drawProject:point
		px="196.675"
		py="121.239"
		id="376"
	/>
	<path
		d="M183,235 A67.4609,67.4609 0 0,0 196.675,121.239"
		id="377"
		childIds="375 376"
		stroke="red"
		stroke-width="5"
		fill="none"
	/>
	<drawProject:arc
		x1="183"
		y1="235"
		x2="196.675"
		y2="121.239"
		angle="2.02906"
		id="377"
		childIds="375 376"
	/>
	<drawProject:point
		px="6"
		py="215"
		id="485"
	/>
	<drawProject:point
		px="57.592"
		py="250.63"
		id="486"
	/>
	<path
		d="M6,215 A41.8568,41.8568 0 0,0 57.592,250.63"
		id="487"
		childIds="485 486"
		stroke="red"
		stroke-width="5"
		fill="none"
	/>
	<drawProject:arc
		x1="6"
		y1="215"
		x2="57.592"
		y2="250.63"
		angle="1.69303"
		id="487"
		childIds="485 486"
	/>
	<drawProject:point
		px="161.901"
		py="116.399"
		id="1470"
	/>
	<drawProject:point
		px="136.341"
		py="140.181"
		id="1471"
	/>
	<path
		d="M161.901,116.399 A96.1348,96.1348 0 0,0 136.341,140.181"
		id="1472"
		childIds="1470 1471"
		stroke="red"
		stroke-width="5"
		fill="none"
	/>
	<drawProject:arc
		x1="161.901"
		y1="116.399"
		x2="136.341"
		y2="140.181"
		angle="0.36519"
		id="1472"
		childIds="1470 1471"
	/>
	<drawProject:point
		px="154.961"
		py="136.03"
		id="1728"
	/>
	<drawProject:point
		px="134.363"
		py="125.043"
		id="1729"
	/>
	<path
		d="M154.961,136.03 A56.0318,56.0318 0 0,0 134.363,125.043"
		id="1730"
		childIds="1728 1729"
		stroke="red"
		stroke-width="5"
		fill="none"
	/>
	<drawProject:arc
		x1="154.961"
		y1="136.03"
		x2="134.363"
		y2="125.043"
		angle="0.419713"
		id="1730"
		childIds="1728 1729"
	/>
	<drawProject:point
		px="447.78"
		py="283.317"
		id="93106"
	/>
	<drawProject:point
		px="574.811"
		py="166.64"
		id="93107"
	/>
	<path
		d="M447.78,283.317 A86.4152,86.4152 0 1,0 574.811,166.64"
		id="93108"
		childIds="93106 93107"
		stroke="red"
		stroke-width="5"
		fill="none"
	/>
	<drawProject:arc
		x1="447.78"
		y1="283.317"
		x2="574.811"
		y2="166.64"
		angle="3.26836"
		id="93108"
		childIds="93106 93107"
	/>
	<drawProject:point
		px="387.029"
		py="142.264"
		id="93110"
	/>
	<drawProject:point
		px="264.439"
		py="194.714"
		id="93111"
	/>
	<path
		d="M387.029,142.264 A66.7726,66.7726 0 1,0 264.439,194.714"
		id="93112"
		childIds="93110 93111"
		stroke="red"
		stroke-width="5"
		fill="none"
	/>
	<drawProject:arc
		x1="387.029"
		y1="142.264"
		x2="264.439"
		y2="194.714"
		angle="3.25267"
		id="93112"
		childIds="93110 93111"
	/>
	<drawProject:point
		px="499.638"
		py="118.27"
		id="93114"
	/>
	<drawProject:point
		px="387.029"
		py="142.264"
		id="93115"
	/>
	<path
		d="M499.638,118.27 A58.045,58.045 0 0,0 387.029,142.264"
		id="93116"
		childIds="93114 93115"
		stroke="red"
		stroke-width="5"
		fill="none"
	/>
	<drawProject:arc
		x1="499.638"
		y1="118.27"
		x2="387.029"
		y2="142.264"
		angle="2.88513"
		id="93116"
		childIds="93114 93115"
	/>
	<drawProject:point
		px="574.811"
		py="166.64"
		id="93118"
	/>
	<drawProject:point
		px="499.638"
		py="118.27"
		id="93119"
	/>
	<path
		d="M574.811,166.64 A50.1268,50.1268 0 0,0 499.638,118.27"
		id="93120"
		childIds="93118 93119"
		stroke="red"
		stroke-width="5"
		fill="none"
	/>
	<drawProject:arc
		x1="574.811"
		y1="166.64"
		x2="499.638"
		y2="118.27"
		angle="2.20188"
		id="93120"
		childIds="93118 93119"
	/>
	<drawProject:point
		px="264.439"
		py="194.714"
		id="93122"
	/>
	<drawProject:point
		px="218.554"
		py="262.209"
		id="93123"
	/>
	<path
		d="M264.439,194.714 A55.2562,55.2562 0 0,0 218.554,262.209"
		id="93124"
		childIds="93122 93123"
		stroke="red"
		stroke-width="5"
		fill="none"
	/>
	<drawProject:arc
		x1="264.439"
		y1="194.714"
		x2="218.554"
		y2="262.209"
		angle="1.66172"
		id="93124"
		childIds="93122 93123"
	/>
	<drawProject:point
		px="217.838"
		py="263.112"
		id="93569"
	/>
	<drawProject:point
		px="325.839"
		py="298.837"
		id="93570"
	/>
	<path
		d="M217.838,263.112 A58.0834,58.0834 0 0,0 325.839,298.837"
		id="93571"
		childIds="93569 93570"
		stroke="red"
		stroke-width="5"
		fill="none"
	/>
	<drawProject:arc
		x1="217.838"
		y1="263.112"
		x2="325.839"
		y2="298.837"
		angle="2.73344"
		id="93571"
		childIds="93569 93570"
	/>
	<drawProject:point
		px="325.876"
		py="298.869"
		id="93573"
	/>
	<drawProject:point
		px="447.777"
		py="283.319"
		id="93574"
	/>
	<path
		d="M325.876,298.869 A64.7244,64.7244 0 0,0 447.777,283.319"
		id="93575"
		childIds="93573 93574"
		stroke="red"
		stroke-width="5"
		fill="none"
	/>
	<drawProject:arc
		x1="325.876"
		y1="298.869"
		x2="447.777"
		y2="283.319"
		angle="2.50214"
		id="93575"
		childIds="93573 93574"
	/>
	<drawProject:point
		px="219"
		py="261"
		id="93580"
	/>
	<drawProject:point
		px="309.393"
		py="241.538"
		id="93581"
	/>
	<path
		d="M219,261 A47.2175,47.2175 0 1,0 309.393,241.538"
		id="93582"
		childIds="93580 93581"
		stroke="red"
		stroke-width="5"
		fill="none"
	/>
	<drawProject:arc
		x1="219"
		y1="261"
		x2="309.393"
		y2="241.538"
		angle="3.55087"
		id="93582"
		childIds="93580 93581"
	/>
	<drawProject:point
		px="332.5"
		py="262.5"
		id="93626"
	/>
	<drawProject:point
		px="309.393"
		py="241.538"
		id="93627"
	/>
	<path
		d="M332.5,262.5 A20.2463,20.2463 0 0,0 309.393,241.538"
		id="93628"
		childIds="93626 93627"
		stroke="red"
		stroke-width="5"
		fill="none"
	/>
	<drawProject:arc
		x1="332.5"
		y1="262.5"
		x2="309.393"
		y2="241.538"
		angle="1.75913"
		id="93628"
		childIds="93626 93627"
	/>
	<drawProject:point
		px="332.5"
		py="262.5"
		id="94288"
	/>
	<drawProject:point
		px="390.597"
		py="244.457"
		id="94289"
	/>
	<path
		d="M332.5,262.5 A32.6405,32.6405 0 0,0 390.597,244.457"
		id="94290"
		childIds="94288 94289"
		stroke="red"
		stroke-width="5"
		fill="none"
	/>
	<drawProject:arc
		x1="332.5"
		y1="262.5"
		x2="390.597"
		y2="244.457"
		angle="2.39915"
		id="94290"
		childIds="94288 94289"
	/>
	<drawProject:point
		px="384.5"
		py="304.5"
		id="94545"
	/>
	<drawProject:point
		px="390.597"
		py="244.457"
		id="94546"
	/>
	<path
		d="M384.5,304.5 A36.0824,36.0824 0 0,0 390.597,244.457"
		id="94547"
		childIds="94545 94546"
		stroke="red"
		stroke-width="5"
		fill="none"
	/>
	<drawProject:arc
		x1="384.5"
		y1="304.5"
		x2="390.597"
		y2="244.457"
		angle="1.98099"
		id="94547"
		childIds="94545 94546"
	/>
	<drawProject:point
		px="384.5"
		py="304.5"
		id="94550"
	/>
	<drawProject:point
		px="441.568"
		py="239.711"
		id="94551"
	/>
	<path
		d="M384.5,304.5 A69.8507,69.8507 0 0,0 441.568,239.711"
		id="94552"
		childIds="94550 94551"
		stroke="red"
		stroke-width="5"
		fill="none"
	/>
	<drawProject:arc
		x1="384.5"
		y1="304.5"
		x2="441.568"
		y2="239.711"
		angle="1.33245"
		id="94552"
		childIds="94550 94551"
	/>
	<drawProject:point
		px="441.801"
		py="240.664"
		id="94758"
	/>
	<drawProject:point
		px="595.556"
		py="202.657"
		id="94759"
	/>
	<path
		d="M441.801,240.664 A87.9911,87.9911 0 0,0 595.556,202.657"
		id="94760"
		childIds="94758 94759"
		stroke="red"
		stroke-width="5"
		fill="none"
	/>
	<drawProject:arc
		x1="441.801"
		y1="240.664"
		x2="595.556"
		y2="202.657"
		angle="2.23953"
		id="94760"
		childIds="94758 94759"
	/>
	<drawProject:point
		px="475.752"
		py="184.901"
		id="95266"
	/>
	<drawProject:point
		px="425.946"
		py="83.4741"
		id="95267"
	/>
	<path
		d="M475.752,184.901 A59.8611,59.8611 0 0,0 425.946,83.4741"
		id="95268"
		childIds="95266 95267"
		stroke="red"
		stroke-width="5"
		fill="none"
	/>
	<drawProject:arc
		x1="475.752"
		y1="184.901"
		x2="425.946"
		y2="83.4741"
		angle="2.46799"
		id="95268"
		childIds="95266 95267"
	/>
	<drawProject:point
		px="476.248"
		py="185.099"
		id="95289"
	/>
	<drawProject:point
		px="499.398"
		py="119.679"
		id="95290"
	/>
	<path
		d="M476.248,185.099 A75.8043,75.8043 0 0,0 499.398,119.679"
		id="95291"
		childIds="95289 95290"
		stroke="red"
		stroke-width="5"
		fill="none"
	/>
	<drawProject:arc
		x1="476.248"
		y1="185.099"
		x2="499.398"
		y2="119.679"
		angle="0.950873"
		id="95291"
		childIds="95289 95290"
	/>
	<drawProject:point
		px="331"
		py="180"
		id="95328"
	/>
	<circle
		cx="331"
		cy="180"
		r="14.5602"
		id="95329"
		childIds="95328"
		stroke="red"
		stroke-width="5"
		fill="none"
	/>
	<drawProject:point
		px="441"
		py="178"
		id="95331"
	/>
	<circle
		cx="441"
		cy="178"
		r="15.6205"
		id="95332"
		childIds="95331"
		stroke="red"
		stroke-width="5"
		fill="none"
	/>
	<drawProject:point
		px="358"
		py="200"
		id="95334"
	/>
	<drawProject:point
		px="408.517"
		py="198.408"
		id="95335"
	/>
	<path
		d="M358,200 A26.5707,26.5707 0 0,0 408.517,198.408"
		id="95336"
		childIds="95334 95335"
		stroke="red"
		stroke-width="5"
		fill="none"
	/>
	<drawProject:arc
		x1="358"
		y1="200"
		x2="408.517"
		y2="198.408"
		angle="2.51348"
		id="95336"
		childIds="95334 95335"
	/>
	<drawProject:req>
		<distBetPoints
			id="20"
			IDs="2 5"
			params="0"	/>
		<distBetPoints
			id="21"
			IDs="6 9"
			params="0"	/>
		<distBetPoints
			id="22"
			IDs="16 10"
			params="0"	/>
		<distBetPoints
			id="23"
			IDs="17 1"
			params="0"	/>
		<distBetPoints
			id="126"
			IDs="49 112"
			params="0"	/>
		<distBetPoints
			id="127"
			IDs="24 115"
			params="0"	/>
		<distBetPoints
			id="489"
			IDs="52 486"
			params="0"	/>
		<distBetPoints
			id="93126"
			IDs="93111 93122"
			params="0"	/>
		<distBetPoints
			id="93127"
			IDs="93110 93115"
			params="0"	/>
		<distBetPoints
			id="93128"
			IDs="93114 93119"
			params="0"	/>
		<distBetPoints
			id="93129"
			IDs="93118 93107"
			params="0"	/>
		<distBetPoints
			id="93577"
			IDs="93106 93574"
			params="0"	/>
		<distBetPoints
			id="93578"
			IDs="93570 93573"
			params="0"	/>
		<distBetPoints
			id="93579"
			IDs="93123 93569"
			params="0"	/>
		<distBetPoints
			id="93630"
			IDs="93581 93627"
			params="0"	/>
		<distBetPoints
			id="94544"
			IDs="93626 94288"
			params="0"	/>
		<distBetPoints
			id="94549"
			IDs="94289 94546"
			params="0"	/>
		<distBetPoints
			id="94762"
			IDs="94545 94550"
			params="0"	/>
		<distBetPoints
			id="94763"
			IDs="94758 94551"
			params="0"	/>
		<distBetPoints
			id="95293"
			IDs="95266 95289"
			params="0"	/>
	</drawProject:req>
</svg>